<svg width="90" height="90" viewBox="0 0 90 90" fill="none" xmlns="http://www.w3.org/2000/svg">
<path d="M44.944 89.232C38.8 89.232 33.04 88.08 27.664 85.776C22.3733 83.472 17.68 80.3147 13.584 76.304C9.488 72.208 6.288 67.472 3.984 62.096C1.68 56.72 0.528 50.96 0.528 44.816C0.528 38.672 1.68 32.9547 3.984 27.664C6.288 22.288 9.44533 17.552 13.456 13.456C17.552 9.36 22.288 6.16 27.664 3.856C33.04 1.55199 38.8 0.399994 44.944 0.399994C51.088 0.399994 56.848 1.55199 62.224 3.856C67.6 6.16 72.2933 9.36 76.304 13.456C80.4 17.4667 83.6 22.16 85.904 27.536C88.208 32.912 89.36 38.672 89.36 44.816C89.36 50.96 88.208 56.72 85.904 62.096C83.6 67.472 80.4 72.208 76.304 76.304C72.2933 80.3147 67.6 83.472 62.224 85.776C56.848 88.08 51.088 89.232 44.944 89.232ZM44.816 69.008C53.776 69.008 60.6453 64.4427 65.424 55.312L60.944 52.88C59.0667 56.208 56.7627 58.7253 54.032 60.432C51.3867 62.0533 48.3147 62.864 44.816 62.864C41.232 62.864 38.0747 62.0533 35.344 60.432C32.6987 58.7253 30.48 56.208 28.688 52.88L24.336 55.312C29.1147 64.4427 35.9413 69.008 44.816 69.008ZM28.048 41.36C29.7547 41.36 31.12 40.8053 32.144 39.696C33.2533 38.5867 33.808 37.2213 33.808 35.6C33.808 33.9787 33.2533 32.6133 32.144 31.504C31.12 30.3947 29.7547 29.84 28.048 29.84C26.4267 29.84 25.0613 30.3947 23.952 31.504C22.8427 32.6133 22.288 33.9787 22.288 35.6C22.288 37.2213 22.8427 38.5867 23.952 39.696C25.0613 40.8053 26.4267 41.36 28.048 41.36ZM61.84 41.36C63.4613 41.36 64.8267 40.848 65.936 39.824C67.0453 38.7147 67.6 37.3067 67.6 35.6C67.6 33.9787 67.0453 32.6133 65.936 31.504C64.8267 30.3947 63.4613 29.84 61.84 29.84C60.2187 29.84 58.8533 30.3947 57.744 31.504C56.6347 32.6133 56.08 33.9787 56.08 35.6C56.08 37.2213 56.6347 38.5867 57.744 39.696C58.8533 40.8053 60.2187 41.36 61.84 41.36Z" fill="#04AA6D"/>
</svg>
